<?xml version="1.0" encoding="UTF-8" standalone="no"?>

<svg xmlns="http://www.w3.org/2000/svg" width="80" height="108">
  <g
     transform="translate(-127.64236,-413.65181)"
     id="g4679">
    <path
       d="m 188,489.8 10.7,10.7 -5.2,5.2 c -3.6,3.6 -7.8,6.4 -12.4,8.3 -4.6,1.9 -9.5,2.8 -14.7,2.8 -5.1,0 -10.0,-0.9 -14.6,-2.8 -4.6,-1.9 -8.8,-4.7 -12.4,-8.3 -3.7,-3.7 -6.5,-7.9 -8.3,-12.7 -1.8,-4.7 -2.7,-9.5 -2.7,-14.4 0,-4.8 0.9,-9.6 2.7,-14.3 1.8,-4.6 4.6,-8.8 8.3,-12.6 3.7,-3.7 8.0,-6.5 12.7,-8.4 4.7,-1.8 9.5,-2.8 14.4,-2.8 4.9,0 9.7,0.9 14.4,2.8 4.7,1.8 8.9,4.7 12.7,8.4 l 5.2,5.3 -42.5,42.5 c 4.3,2.1 8.9,2.8 13.7,2.1 4.8,-0.7 9.0,-2.9 12.7,-6.5 l 5.2,-5.2 z m -38.1,-27.5 c -4.5,4.5 -6.8,10.0 -6.8,16.4 0,3.5 0.8,6.8 2.3,10.0 1.3,-1.3 3.4,-3.4 6.2,-6.2 2.7,-2.7 5.7,-5.7 8.8,-8.8 3.1,-3.1 6.1,-6.1 9.0,-8.9 2.8,-2.8 5.1,-5.0 6.7,-6.6 -4.3,-2.1 -8.9,-2.9 -13.7,-2.2 -4.8,0.6 -9.0,2.8 -12.7,6.4"
       id="path2842"
       style="fill:#053f95"/>
  </g>
</svg>
