<?xml version="1.0" encoding="UTF-8" standalone="no"?>
<svg xmlns="http://www.w3.org/2000/svg" width="80" height="108">
  <g
     transform="translate(-127.64236,-413.65181)"
     id="g4679"
     style="fill-opacity:1">
    <path
       d="m 129,478.5 c 0,-5.3 0.9,-10.3 2.9,-14.9 2,-4.6 4.7,-8.6 8.2,-12.1 3.4,-3.4 7.5,-6.2 12.2,-8.2 4.6,-1.9 9.6,-2.9 14.8,-2.9 5.3,0 10.3,0.9 14.9,2.9 4.6,1.9 8.6,4.7 12.2,8.2 3.5,3.4 6.2,7.5 8.2,12.1 2,4.6 2.9,9.6 2.9,14.9 l 0,38.4 -15.2,0 0,-38.4 c 0,-3.1 -0.5,-6.1 -1.7,-8.9 -1.1,-2.7 -2.8,-5.2 -4.9,-7.3 -2.0,-2.1 -4.5,-3.7 -7.4,-4.9 -2.8,-1.1 -5.8,-1.7 -9.0,-1.7 -3.1,0 -6.1,0.5 -8.9,1.7 -2.7,1.1 -5.2,2.8 -7.3,4.9 -2.1,2.1 -3.7,4.5 -4.9,7.3 -1.1,2.8 -1.8,5.7 -1.8,8.9 l 0,38.4 -15.2,0 0,-38.4"
       id="path2844"
       style="fill:#053f95;fill-opacity:1;fill-rule:nonzero;stroke:none" />
  </g>
</svg>
