<?xml version="1.0" encoding="UTF-8" standalone="no"?>
<svg xmlns="http://www.w3.org/2000/svg" width="80" height="108">
<path d="m 0,65 c 0,-5.3 0.9,-10.3 2.9,-14.9 1.9,-4.6 4.7,-8.6 8,-12 3.4,-3.4 7.5,-6.2 12.2,-8.2 4.6,-1.9 9.6,-2.9 14.8,-2.9 5.3,0 10.3,1 14.9,2.9 4.6,1.9 8.6,4.7 12.2,8.2 3.5,3.4 6.2,7.5 8.2,12 1.9,4.6 2.9,9.6 2.9,14.9 0,5.2 -0.9,10 -2.9,14.8 -1.9,4.6 -4.7,8.7 -8.2,12.2 -3.5,3.5 -7.6,6.2 -12.2,8.2 -4.6,1.9 -9.6,2.9 -14.9,2.9 -5.2,0 -10.2,-0.9 -14.8,-2.9 -4.6,-1.9 -8.7,-4.7 -12.2,-8.2 -3.4,-3.5 -6.2,-7.6 -8,-12.2 -1.9,-4.6 -2.9,-9.6 -2.9,-14.8 z m 15,0 c 0,3 0.6,6.2 1.8,9 1,2.8 2.8,5.3 4.9,7.4 2,2 4.5,3.7 7.4,4.9 2.8,1 5.8,1.8 9,1.8 3,0 6.2,-0.6 9,-1.8 2.8,-1 5.3,-2.8 7.4,-4.9 2,-2 3.7,-4.5 4.9,-7.4 1,-2.8 1.7,-5.8 1.7,-9 0,-3 -0.5,-6 -1.7,-8.9 -1,-2.8 -2.8,-5.2 -4.9,-7.3 -2,-2 -4.5,-3.7 -7.4,-4.9 -2.8,-1 -5.8,-1.7 -9,-1.7 -3,0 -6.2,0.6 -9,1.7 -2.8,1.2 -5.3,2.8 -7.4,4.9 -2,2 -3.7,4.5 -4.9,7.3 -1,2.7 -1.8,5.7 -1.8,8.9"
id="path2850" style="fill:#053f95;"/>
</svg>
