<?xml version="1.0" encoding="UTF-8" standalone="no"?><svg width="212" height="209" xmlns="http://www.w3.org/2000/svg" xmlns:xlink="http://www.w3.org/1999/xlink"><g transform="translate(39,-142)"><path d="m 11.1,246.6 c 0,-8.3 6.7,-15.1 15.1,-15.1 8.3,0 15.1,6.7 15.1,15.1 0,8.3 -6.7,15.1 -15.1,15.1 -8.3,0 -15.1,-6.7 -15.1,-15.1 z m -15.9,0 c 0,-17.1 13.9,-31.0 31.0,-31.0 17.1,0 31,13.9 31,31 0,17.1 -13.8,31 -31,31 -17.1,0 -31,-13.9 -31,-31 z m 112.3,31 -1.2,0 1.2,0 0,0 z M 75.2,246.4 c 0,-17 13.9,-30.8 31,-30.8 17.1,0 31,13.9 31,31 0,16.7 -13.2,30.3 -29.8,31 l -1.2,0 -31,0 0,-31.2 z m 15.9,0.19 c 0,-8.3 6.7,-15.1 15.1,-15.1 8.3,0 15.1,6.7 15.1,15.1 0,8.3 -6.7,15.1 -15.1,15.1 l -15,0 0,-15.1 z m 75.6,-7.5 -14.6,0 0,-40.8 c 0,0 -25.6,-50.8 -88.4,-50.8 -62.8,0 -84.1,50.8 -84.1,50.8 l 0,40.3 -14.5,0 0,16.7 14.5,0 0,40.5 c 0,-1e-5 21.2,50.1 84.1,50.1 62.9,0 88.4,-50.1 88.4,-50.1 l 0,-40.5 14.5,0 0.0,-16.1" style="fill:#053f95;"/></g></svg>
