<?xml version="1.0" encoding="UTF-8" standalone="no"?>

<svg xmlns="http://www.w3.org/2000/svg" width="80" height="108">
  <g
     transform="translate(-127.64236,-413.65181)"
     id="g4679">
    <path
       d="m 166,440.4 c 5.3,0 10.3,1.0 14.9,2.9 4.6,1.9 8.6,4.7 12.2,8.2 3.5,3.4 6.2,7.5 8.2,12.1 1.9,4.6 2.9,9.6 2.9,14.9 0,5.2 -0.9,10.1 -2.9,14.8 -2.0,4.6 -4.7,8.7 -8.2,12.2 -3.5,3.5 -7.6,6.2 -12.2,8.2 -4.6,1.9 -9.6,2.9 -14.9,2.9 l -23.0,0 0,30.7 -15.2,0 0,-69.2 c 0,-5.3 0.9,-10.3 2.9,-14.9 1.9,-4.6 4.7,-8.6 8.2,-12.1 3.4,-3.4 7.5,-6.2 12.2,-8.2 4.6,-1.9 9.6,-2.9 14.8,-2.9 z m 0,61.5 c 3.1,0 6.2,-0.6 9.0,-1.8 2.8,-1.1 5.3,-2.8 7.4,-4.9 2.1,-2.1 3.7,-4.5 4.9,-7.4 1.1,-2.8 1.7,-5.8 1.7,-9.0 0,-3.1 -0.5,-6.1 -1.7,-8.9 -1.1,-2.8 -2.8,-5.2 -4.9,-7.3 -2.1,-2.1 -4.5,-3.7 -7.4,-4.9 -2.8,-1.1 -5.8,-1.7 -9.0,-1.7 -3.1,0 -6.1,0.6 -8.9,1.7 -2.7,1.2 -5.2,2.8 -7.3,4.9 -2.1,2.1 -3.7,4.5 -4.9,7.3 -1.1,2.7 -1.7,5.7 -1.7,8.9 l 0,23.2 23.0,0"
       id="path2840"
       style="fill:#053f95;" />
  </g>
</svg>
