<?xml version="1.0" encoding="UTF-8" standalone="no"?>
<svg xmlns="http://www.w3.org/2000/svg" width="140" height="108">
<path d="m 100.5,26.4 c 5.3,0 10.3,1 14.9,2.9 4.6,2 8.6,4.7 12.2,8.2 3.5,3.4 6.2,7.5 8.2,12 1.9,4.6 2.9,9.6 2.9,14.9 l 0,38.4 -15.2,0 0,-38.4 c 0,-3 -0.6,-6 -1.8,-8.9 -1,-2.8 -2.8,-5.2 -4.9,-7.3 -2,-2 -4.5,-3.7 -7.4,-4.9 -2.8,-1 -5.8,-1.8 -9,-1.8 -3,0 -6,0.6 -8.9,1.8 -2.7,1 -5.2,2.8 -7.3,4.9 -2,2 -3.7,4.5 -4.9,7.3 -1,2.7 -1.7,5.7 -1.7,8.9 l 0,38.4 -15.2,0 0,-38.4 c 0,-3 -0.6,-6 -1.7,-8.9 -1.2,-2.8 -2.8,-5.2 -4.9,-7.3 -2,-2 -4.5,-3.7 -7.4,-4.9 -2.8,-1 -5.8,-1.8 -9,-1.8 -3,0 -6,0.6 -8.9,1.8 -2.7,1 -5.2,2.8 -7.3,4.9 -2,2 -3.7,4.5 -4.9,7.3 -1,2.7 -1.7,5.7 -1.7,8.9 l 0,38.4 -15.2,0 0,-38.4 c 0,-5.3 0.9,-10.3 2.9,-14.9 1.9,-4.6 4.7,-8.6 8.2,-12 3.4,-3.4 7.5,-6.2 12.2,-8.2 4.6,-1.9 9.6,-2.9 14.8,-2.9 6.3,0 12.2,1.3 17.5,4 5.2,2.8 9.7,6.5 13.2,11.3 3.5,-4.7 7.9,-8.5 13.3,-11.3 C 88.4,27.8 94.2,26.4 100.5,26.4" id="path2852" style="fill:#053f95;"/>
</svg>
